<?xml version="1.0" encoding="UTF-8" standalone="no"?>
<!-- Created with Inkscape (http://www.inkscape.org/) -->

<svg
   width="680.80334mm"
   height="223.8035mm"
   viewBox="0 0 680.80334 223.8035"
   version="1.1"
   id="svg5"
   xml:space="preserve"
   xmlns:xlink="http://www.w3.org/1999/xlink"
   xmlns="http://www.w3.org/2000/svg"
   xmlns:svg="http://www.w3.org/2000/svg"><defs
     id="defs2"><linearGradient
       id="linearGradient10"><stop
         style="stop-color:#014f41;stop-opacity:1;"
         offset="0"
         id="stop10" /><stop
         style="stop-color:#016654;stop-opacity:1;"
         offset="1"
         id="stop11" /></linearGradient><linearGradient
       xlink:href="#linearGradient10"
       id="linearGradient11"
       x1="867.35815"
       y1="-39.895519"
       x2="867.35815"
       y2="-260.05969"
       gradientUnits="userSpaceOnUse"
       gradientTransform="translate(0,-268.92536)" /></defs><g
     id="layer1"
     transform="translate(-525.3968,530.26506)"><rect
       style="fill:url(#linearGradient11);fill-opacity:1;stroke:none;stroke-width:5.29167;stroke-linecap:square;stroke-linejoin:round;stop-color:#000000"
       id="rect1"
       width="680.80341"
       height="223.80348"
       x="525.39679"
       y="-530.26508"
       ry="37.878422" /><path
       id="path1"
       style="fill:#ffffff;stroke-width:0.437612"
       d="m 716.24207,-491.21601 v 3.30781 15.23679 c 0,4.72858 3.90319,8.63255 8.631,8.63255 h 17.24804 v 12.76356 h -19.26394 v -4.49998 -3.30678 h -6.6151 v 3.30678 4.49998 6.61304 13.28342 3.30678 h 6.6151 v -3.30678 -13.28342 h 19.26394 v 13.28342 3.30678 h 6.61303 v -3.30678 -13.28342 -6.61304 -12.76356 h 5.2e-4 v -6.61407 h -5.2e-4 v -17.25527 -3.30678 h -6.61303 v 3.30678 17.25527 h -17.24804 c -1.15333,0 -2.01642,-0.86497 -2.01642,-2.01848 v -15.23679 -3.30781 z m 113.81838,0 c -4.72782,0 -8.63153,3.90397 -8.63152,8.63255 v 82.54173 c -1e-5,4.72858 3.9037,8.63255 8.63152,8.63255 h 82.52829 c 4.72782,0 8.631,-3.90397 8.631,-8.63255 v -82.54173 c 0,-4.72858 -3.90318,-8.63255 -8.631,-8.63255 z m 279.52975,0 c -4.7279,0 -8.631,3.90397 -8.631,8.63255 v 82.54173 c 0,4.72858 3.9031,8.63255 8.631,8.63255 h 15.9731 c 4.7278,0 8.631,-3.90397 8.631,-8.63255 v -42.60257 c 0,-4.72858 -3.9032,-8.63255 -8.631,-8.63255 h -7.9866 -3.3072 v 6.61614 h 3.3072 7.9866 c 1.1534,0 2.018,0.8629 2.018,2.01641 v 42.60257 c 0,1.15351 -0.8646,2.01848 -2.018,2.01848 h -15.9731 c -1.1534,0 -2.0185,-0.86497 -2.0185,-2.01848 v -82.54173 c 0,-1.15351 0.8651,-2.01694 2.0185,-2.01693 h 21.2968 3.3073 v -6.61562 h -3.3073 z m -328.65285,10e-4 v 3.30678 10.00662 h -2.01177 v -5.2e-4 h -6.61303 v 5.2e-4 h -8.62066 c -4.72781,0 -8.63152,3.90397 -8.63152,8.63255 v 37.88916 3.30781 h 6.61303 v -3.30781 -37.88916 c 0,-1.15351 0.86516,-2.01848 2.01849,-2.01848 h 8.62066 v 39.90867 3.30678 h 6.61303 v -3.30678 -39.90867 h 2.01177 v 5.1e-4 h 6.61561 v -5.1e-4 h 2.01125 v 39.90867 3.30678 h 6.61562 v -3.30678 -39.90867 h 8.61962 c 1.15333,0 2.01849,0.86497 2.01849,2.01848 v 37.88916 3.30781 h 6.61303 v -3.30781 -37.88916 c 0,-4.72858 -3.9037,-8.63255 -8.63152,-8.63255 h -8.61962 v -5.2e-4 h -6.61562 v 5.2e-4 h -2.01125 v -10.00662 -3.30678 z m 146.97862,0 v 6.61355 h 3.30678 43.28107 v 20.01222 h -36.09805 c -4.72781,-10e-6 -8.63151,3.90396 -8.63151,8.63254 v 21.30051 3.30781 h 6.6151 v -3.30781 -21.30051 c 0,-1.15351 0.86309,-2.01848 2.01641,-2.01848 h 36.09805 v 5.2e-4 h 6.6151 v -5.2e-4 h 36.09908 c 1.1533,0 2.0164,0.86497 2.0164,2.01848 v 21.30051 3.30781 h 6.6146 v -3.30781 -21.30051 c 0,-4.72858 -3.9032,-8.63255 -8.631,-8.63254 h -36.09908 v -20.01222 h 43.28158 3.3063 v -6.61355 h -3.3063 -43.28158 -6.6151 -43.28107 z m 106.48803,0 v 6.61355 h 3.3068 10.0041 v 20.0117 h -11.2092 -3.3067 v 6.6151 h 3.3067 11.2092 6.6151 11.207 3.3089 v -6.6151 h -3.3089 -11.207 v -20.0117 h 10.0019 3.3089 v -6.61355 h -3.3089 -10.0019 -6.6151 -10.0041 z m 37.3306,0.18552 v 3.30781 34.61287 c 0,4.72858 3.9032,8.63255 8.631,8.63255 h 9.8846 v 20.01118 h -13.7598 v -10.00559 -3.30677 h -6.6136 v 3.30677 39.93917 3.30884 h 6.6136 v -3.30884 -23.31796 h 13.7598 v 23.31796 3.30884 h 6.6131 v -3.30884 -23.31796 -6.61562 -20.01118 -6.61407 -36.63238 -3.30678 h -6.6131 v 3.30678 36.63238 h -9.8846 c -1.1533,10e-6 -2.0164,-0.86497 -2.0164,-2.01848 v -34.61287 -3.30781 z m -432.91623,0.5519 -30.85858,22.42344 7.30033,22.45186 42.64443,-31.00637 z m 191.24208,5.87717 h 82.52829 c 1.15333,-1e-5 2.01642,0.86342 2.01642,2.01693 v 82.54173 c 0,1.15351 -0.86309,2.01848 -2.01642,2.01848 h -82.52829 c -1.15333,0 -2.01849,-0.86497 -2.01849,-2.01848 v -82.54173 c 0,-1.15351 0.86516,-2.01694 2.01849,-2.01693 z m -170.31622,9.32862 -19.0929,13.88184 42.662,30.98313 7.29051,-22.44049 z m 184.58925,6.96599 v 6.61355 h 3.30729 42.04188 c 1.15332,0 2.01796,0.86549 2.01796,2.019 v 13.03486 c 0,1.15351 -0.86464,2.019 -2.01796,2.019 h -36.71818 c -4.72781,-1e-5 -8.63099,3.90396 -8.63099,8.63255 v 13.03693 c 0,4.72858 3.90318,8.63255 8.63099,8.63254 h 42.04395 3.30522 v -6.61561 h -3.30522 -42.04395 c -1.15332,0 -2.01589,-0.86342 -2.01589,-2.01693 v -13.03693 c 0,-1.15352 0.86257,-2.019 2.01589,-2.019 h 36.71818 c 4.72781,0 8.63099,-3.90397 8.63099,-8.63255 v -13.03486 c 0,-4.72859 -3.90318,-8.63256 -8.63099,-8.63255 h -42.04188 z m -238.21389,1.58905 -19.08617,13.86944 11.78739,36.28254 23.60425,-0.006 z m 31.61823,7.44451 -20.68763,15.04197 20.68763,6.7231 z m 2.16162,0.008 v 21.7563 l 20.69538,-6.72517 z m 396.91166,6.27921 v 3.30781 11.71401 h -5e-4 v 6.6151 h 5e-4 v 31.3061 c 0,4.72858 3.9032,8.63255 8.631,8.63255 h 11.1606 c 4.7278,0 8.631,-3.90397 8.631,-8.63255 v -31.3061 h 5e-4 v -6.6151 h -5e-4 v -11.71401 -3.30781 h -6.6151 v 3.30781 11.71401 h -15.195 v -11.71401 -3.30781 z m -95.58328,5.79809 v 3.30626 12.91187 h -10e-4 v 6.61304 h 10e-4 v 24.31376 c 0,4.72858 3.90319,8.63255 8.631,8.63255 h 55.90618 c 4.7278,0 8.631,-3.90397 8.631,-8.63255 v -24.31376 h 5e-4 v -6.61304 h -5e-4 v -12.91187 -3.30626 h -6.6131 v 3.30626 12.91187 h -59.94256 v -12.91187 -3.30626 z m -324.85356,5.00952 7.91011,24.32616 12.78527,-17.60099 z m 44.88098,0.002 -20.68762,6.72259 12.79095,17.60874 z m 2.25568,0.0589 -16.27963,50.15457 h 23.59185 l 11.78739,-36.28254 z m -24.69255,7.93544 -12.79043,17.60771 25.57621,-0.006 z m 404.60523,2.8329 h 15.195 v 31.3061 c 0,1.15351 -0.8626,2.01848 -2.0159,2.01848 h -11.1606 c -1.1533,0 -2.0185,-0.86497 -2.0185,-2.01848 z m -95.58326,6.99234 h 59.94256 v 24.31376 c 0,1.15351 -0.8646,2.01848 -2.0179,2.01848 h -55.90618 c -1.15333,0 -2.01848,-0.86497 -2.01848,-2.01848 z m -224.60645,0.8201 v 6.61562 h 3.30781 26.31571 c 1.15332,0 2.01641,0.86342 2.01641,2.01693 v 4.12378 h -23.31537 -3.30626 v 6.6151 h 3.30626 66.55459 3.30884 v -6.6151 h -3.30884 -23.31434 v -4.12378 c 0,-1.15351 0.86516,-2.01693 2.01848,-2.01693 h 26.31416 3.30729 v -6.61562 h -3.30729 -26.31416 c -4.72781,0 -8.63099,3.90397 -8.63099,8.63255 v 4.12378 h -6.69779 v -4.12378 c 0,-4.72858 -3.90318,-8.63255 -8.63099,-8.63255 H 726.5417 Z m -70.9874,9.11831 -52.72288,0.015 7.29,22.4405 h 38.14444 z m 62.69488,16.39383 v 6.6151 h 3.30678 93.17777 3.30626 v -6.6151 h -3.30626 -93.17777 z m 42.36486,35.77249 -1.5875,1.85209 h -15.53135 l 0.21187,0.76739 h 7.80521 v 2.16938 h -6.95875 c -0.10583,-0.44979 -0.26427,-0.89979 -0.47594,-1.4025 l -0.37052,0.0269 c 0.15875,1.34938 -0.74073,2.61938 -1.61385,3.04271 -0.79375,0.39687 -1.34938,1.11104 -1.05834,2.03708 0.3175,0.97896 1.53469,1.19042 2.3549,0.71417 0.89958,-0.55562 1.56104,-1.85167 1.32291,-3.67729 h 6.79959 v 6.74687 h 0.52917 c 1.58749,0 2.53989,-0.50271 2.53989,-0.66146 v -6.08541 h 7.24969 c -0.10583,0.74083 -0.26458,1.61354 -0.39688,2.35438 -0.87312,-0.71438 -2.09031,-1.5875 -2.09031,-1.5875 l -1.19062,1.37614 h -3.04271 l 0.21187,0.76739 h 5.55625 c 0.18521,0 0.34375,-0.0266 0.44959,-0.10593 l -0.0791,0.37052 0.29094,0.15864 c 1.08479,-0.71437 2.43396,-1.9051 3.22771,-2.75177 0.52917,-0.0265 0.82031,-0.10562 1.03198,-0.31729 l -2.67219,-2.54041 -1.50843,1.53479 h -7.03782 v -2.16938 h 8.17573 c 0.34396,0 0.63479,-0.1327 0.71417,-0.42375 -1.08479,-0.92604 -2.85719,-2.19573 -2.85719,-2.19573 z m 73.05135,0.185 c -1.74624,1.42875 -5.29187,3.38698 -8.28166,4.41886 l 0.0796,0.34364 c 1.32292,-0.0794 2.75157,-0.26427 4.1274,-0.47594 v 4.33876 h -4.3124 l 0.21136,0.76739 h 4.10104 v 4.70979 h -0.3173 l -3.01635,-1.21698 v 11.80032 h 0.44959 c 1.21708,0 2.43447,-0.66136 2.43447,-0.9524 v -1.61437 h 3.88917 v 1.77302 h 0.50281 c 1.00542,0 2.46073,-0.55573 2.48719,-0.7674 v -7.7525 c 0.55562,-0.10583 0.92594,-0.34385 1.08469,-0.55552 l -2.93677,-2.2226 -1.4025,1.50843 h -0.13229 v -4.70979 h 4.33927 c 0.37041,0 0.63479,-0.13219 0.71416,-0.42323 -1.00541,-1.00541 -2.75125,-2.48718 -2.75125,-2.48718 l -1.50843,2.14302 h -0.79375 v -4.92115 c 1.11125,-0.26458 2.11666,-0.55542 2.91041,-0.84646 0.84667,0.23813 1.42886,0.15875 1.69344,-0.13229 z m 7.40834,0.0796 v 3.83645 h -5.23896 l 0.21187,0.7674 h 13.07052 c 0.37042,0 0.6348,-0.13271 0.71417,-0.42375 -0.97895,-1.00541 -2.67219,-2.43396 -2.67219,-2.43396 l -1.50791,2.09031 h -1.48208 v -2.83135 c 0.635,-0.10583 0.82041,-0.34385 0.87333,-0.68781 z m -48.78927,0.13229 c -1.93146,1.37583 -5.90032,3.30729 -9.10177,4.36562 l 0.10593,0.34365 c 1.53459,-0.10583 3.17511,-0.29094 4.73615,-0.55552 v 4.44521 h -4.89479 l 0.21187,0.74052 h 3.88917 c -0.79375,3.81 -2.24886,7.91135 -4.39198,10.76885 l 0.31729,0.31729 c 1.93146,-1.58749 3.57198,-3.41281 4.86844,-5.50302 v 9.76271 h 0.55552 c 1.48166,0 2.46083,-0.6876 2.46083,-0.87281 v -11.85354 c 0.82021,1.16416 1.61365,2.72541 1.79886,4.04833 2.43416,1.98437 4.89509,-2.75198 -1.79886,-4.68344 v -1.98437 h 4.18011 c 0.37042,0 0.63531,-0.13219 0.71468,-0.42323 -0.97895,-0.9525 -2.64583,-2.40761 -2.64583,-2.40761 l -1.45521,2.09032 h -0.79375 v -4.97438 c 1.05834,-0.23812 2.03699,-0.47604 2.85719,-0.71417 0.84667,0.29105 1.42917,0.26469 1.74667,-0.0264 z m 83.76698,0.185 v 4.25969 h -2.01073 l -3.25407,-1.26969 v 13.86427 h -3.175 l 0.23771,0.76688 h 24.50083 c 0.34396,0 0.60844,-0.13219 0.68782,-0.42323 -0.89958,-0.97896 -2.5399,-2.46032 -2.5399,-2.46032 l -1.03198,1.56063 v -10.98021 c 0.68792,-0.0794 1.00542,-0.23812 1.19063,-0.52917 l -3.22823,-2.27531 -1.34927,1.74615 h -2.16938 v -3.28042 c 0.52917,-0.10584 0.71448,-0.31761 0.7674,-0.63511 l -3.59875,-0.34416 v 4.25969 h -2.22209 v -3.28042 c 0.52917,-0.10584 0.71407,-0.31761 0.74053,-0.63511 z m 112.13062,0.47646 -5.23896,1.13739 v 0.74104 l 2.14354,0.18501 v 13.38833 c 0,1.4552 -0.0268,3.65114 -0.0532,5.18573 l -1.93115,0.21135 v 0.82062 l 4.89479,0.3173 0.42323,-1.85209 c 1.21708,1.42875 2.72521,1.95802 4.23333,1.95802 3.59833,0 6.03219,-3.20177 6.03219,-7.59385 0,-4.73603 -2.48688,-7.40833 -5.74125,-7.40833 -1.5875,0 -3.14865,0.60896 -4.47156,2.01125 v -4.65708 l 0.10594,-4.20647 z m -183.1976,1.74614 -1.50792,1.66708 h -4.15427 l -3.175,-1.34978 v 21.0876 h 0.52917 c 1.34937,0 2.51354,-0.74115 2.51354,-1.11156 v -1.53428 h 4.5775 v 2.27532 h 0.47645 c 1.11125,0 2.56605,-0.66156 2.61897,-0.89969 v -17.17156 c 0.52916,-0.10583 0.89999,-0.34375 1.0852,-0.58188 z m 104.56364,0.29094 v 0.9524 l 2.03709,0.21187 5.3976,18.57354 h 1.93115 l 4.55114,-15.1076 4.70927,15.1076 h 1.90531 l 5.15938,-18.44125 2.48719,-0.34416 v -0.9524 h -6.42959 v 0.9524 l 2.56626,0.34416 -3.6773,14.12886 -4.12791,-14.15521 2.8577,-0.31781 v -0.9524 h -8.25479 v 0.9524 l 2.64583,0.31781 -4.18062,14.04927 -3.70417,-14.1025 2.56626,-0.26458 v -0.9524 z m -64.92885,1.87844 c -0.26459,1.79916 -0.82021,4.39219 -1.45521,6.19135 h -7.59385 l 0.21187,0.74104 h 5.29167 v 4.44469 h -4.70979 l 0.21187,0.7674 h 4.49792 v 7.99072 h 0.52916 c 1.5875,0 2.51355,-0.66187 2.51355,-0.82062 v -7.1701 h 5.31802 c 0.39687,0 0.63531,-0.13219 0.71468,-0.42323 -1.00541,-0.9525 -2.69906,-2.38125 -2.69906,-2.38125 l -1.50792,2.03708 h -1.82572 v -4.44469 h 5.60896 c 0.37041,0 0.66166,-0.13219 0.74104,-0.42323 -1.03188,-0.9525 -2.72542,-2.32854 -2.72542,-2.32854 l -1.50792,2.01073 h -2.59312 c 1.61396,-1.40229 3.1751,-3.25427 4.07469,-4.65656 0.58208,0.0265 0.87343,-0.21177 0.97926,-0.50281 z m -6.56188,0.13229 -0.29093,0.10594 c 0.47625,1.40229 1.03177,3.28104 1.08468,4.97437 2.27542,2.24896 5.23875,-2.27573 -0.79375,-5.08031 z m -38.86739,0.13229 h 4.5775 v 15.55771 h -4.5775 z m 74.6125,0.34417 h 2.24896 v 5.3976 h -2.24896 z m 5.05395,0 h 2.22209 v 5.3976 h -2.22209 z m 5.05344,0 h 2.43396 v 5.3976 h -2.43396 z m -134.91114,0.76739 -1.16427,1.32292 h -2.88406 l 0.21187,0.76739 h 5.23896 c 0.37041,0 0.60843,-0.1327 0.68781,-0.42374 -0.84667,-0.71438 -2.09031,-1.66657 -2.09031,-1.66657 z m 210.76698,1.79886 c -3.70416,0 -7.19646,2.72542 -7.19646,7.48791 0,4.81542 3.01615,7.51427 7.1701,7.51427 2.61938,0 4.63021,-1.24364 5.68854,-3.41322 l -0.52916,-0.37052 c -0.92604,1.24354 -2.06375,2.0376 -3.96875,2.0376 -2.56646,0 -4.57709,-1.77271 -4.68292,-5.82084 h 9.15448 c 0.13229,-0.44979 0.185,-0.95281 0.185,-1.64072 0,-3.33375 -2.19604,-5.79448 -5.82083,-5.79448 z m -199.83948,0.87333 -1.27021,1.45521 h -3.57188 l 0.21188,0.76739 h 6.29677 c 0.37042,0 0.60844,-0.13218 0.68781,-0.42323 -0.89958,-0.79374 -2.35437,-1.79937 -2.35437,-1.79937 z m -10.98021,0.0796 -1.2175,1.37563 h -3.33365 l 0.21188,0.76739 h 5.87354 c 0.34396,0 0.58208,-0.13218 0.66146,-0.42323 -0.84667,-0.76729 -2.19573,-1.71979 -2.19573,-1.71979 z m 210.58146,0.0264 c 1.61396,0 2.75177,1.37552 2.75177,3.51865 0,1.34937 -0.29084,1.95802 -1.50792,1.95802 h -4.52427 c 0.15875,-3.86292 1.61355,-5.47667 3.28042,-5.47667 z m 31.85594,0.66146 c 2.0902,0 3.59823,1.74635 3.59823,5.79447 0,4.55083 -1.7198,5.87355 -3.70417,5.87355 -0.9525,0 -1.85167,-0.31771 -2.75125,-1.13792 v -9.36583 c 1.11125,-0.97896 1.9576,-1.16427 2.85719,-1.16427 z m -243.04615,1.5875 c -1.34937,2.59291 -4.36542,5.58281 -7.85792,7.24968 l 0.21136,0.34365 c 1.85208,-0.37041 3.59844,-1.00521 5.13302,-1.7725 l 0.0263,0.0527 h 3.7574 c -0.68792,3.62479 -3.12251,5.87375 -8.09667,7.40833 l 0.10594,0.34417 c 6.56166,-0.97896 10.31865,-3.22813 11.40344,-7.7525 h 3.96875 c -0.21167,2.56646 -0.55542,4.18073 -0.97875,4.55114 -0.21167,0.13229 -0.42323,0.185 -0.82011,0.185 -0.52916,0 -2.19594,-0.10562 -3.20135,-0.185 v 0.34365 c 1.03187,0.21167 1.90479,0.55594 2.30166,0.97927 0.4498,0.42333 0.52917,1.11094 0.52917,1.93115 1.40229,0 2.355,-0.23823 3.12229,-0.7674 1.21708,-0.8202 1.7725,-2.85709 2.03709,-6.58771 0.44979,-0.0529 0.74083,-0.18541 0.92604,-0.34416 0.79375,0.5027 1.64042,0.97875 2.51354,1.37562 0.3175,-1.42875 1.00552,-2.35479 2.09031,-2.64583 l 0.0264,-0.31729 c -3.25438,-0.55563 -7.46126,-1.90501 -9.26042,-3.96875 l -0.31729,0.185 c 0.55562,1.16416 1.3225,2.2225 2.22208,3.175 l -1.40198,1.32291 h -9.65729 c 1.53458,-0.89958 2.83084,-1.95791 3.75688,-3.0427 0.60854,0.0794 0.82051,-0.0791 0.97926,-0.34365 z m 125.46521,0.34364 h 2.24896 v 5.71542 h -2.24896 z m 5.05395,0 h 2.22209 v 5.71542 h -2.22209 z m 5.05344,0 h 2.43396 v 5.71542 h -2.43396 z m -54.76875,3.33417 h 3.88917 v 6.50864 h -3.88917 z m 46.40802,3.51865 c -1.37583,2.01083 -4.49792,4.65656 -7.67291,6.11177 l 0.10542,0.31781 c 3.96874,-0.79375 7.72594,-2.38115 9.89552,-4.1274 0.84666,0.13229 1.29635,-2.1e-4 1.48156,-0.34416 z m 6.72001,0.68781 -0.15865,0.31781 c 3.41312,1.42875 5.50354,3.38636 6.56187,4.84156 2.69875,2.54 7.96364,-3.67771 -6.40322,-5.15937 z" /></g></svg>
